# xmcd
#
# Track frame offsets:
# 150
# 14957
# 31762
# 44182
# 57567
# 70540
# 84472
# 99480
# 114555
# 125062
# 136137
# 149810
# 162322
# 174477
# 186190
# 203890
# 217185
# 228200
# 242207
# 253850
#
# Disc length: 3648 seconds
#
# Revision: 1
# Processed by: cddbd v1.5.2PL0 Copyright (c) Steve Scherf et al.
# Submitted via: Easy CD Ripper v2.26
#
DISCID=370e3e14
DTITLE=Glen Campbell's - Twenty Golden Greats
DYEAR=1996
DGENRE=Country
TTITLE0=VAQUERO DE FANTASIA
TTITLE1=AMBOS LADOS
TTITLE2=CUANDO LLEGUE A PHOENIX
TTITLE3=SUAVE EN MI MENTE
TTITLE4=MUCHAS MAÑANAS
TTITLE5=GUARDAVIA DE WICHITA
TTITLE6=UNA ULTIMA VEZ
TTITLE7=HASTA QUE ME DIGAS ADIOS
TTITLE8=MOTIVO PARA CREER
TTITLE9=ES SOLO UNA ILUSION
TTITLE10=CARIÑO REGRESA
TTITLE11=DAME ESE SENTIMIENTO FAMILIAR
TTITLE12=GALVESTON
TTITLE13=LOS SUEÑOS DE UNA AMA DE CASA
TTITLE14=MI ULTIMO PENSAMIENTO
TTITLE15=MUESTRAME EL JUEGO, SUSIE
TTITLE16=TRATA AMABLEMENTE
TTITLE17=CAMPESINO (LLEGASTE A LOS ANGEL
TTITLE18=TODO LO QUE TENGO QUE HACER ES
TTITLE19=GRACIA SORPRENDENTE
EXTD=
EXTT0=RHINESTONE COWBOY
EXTT1=BOTH SIDES NOW
EXTT2=BY THE TIME I GET TO PHOENIX
EXTT3=GENTLE ON MY MIND
EXTT4=TOO MANY MORNINGS
EXTT5=WICHITA LINEMAN
EXTT6=ONE LAST TIME
EXTT7=DON'T PULL YOU LOVE THEN YOU CAN TELL ME GOODBYE
EXTT8=REASON TO BELIEVE
EXTT9=IT'S ONLY MAKE BELIEVE
EXTT10=HONEY COME BACK
EXTT11=GIVE ME BACK THAT OLD FAMILIAR FEELING
EXTT12=
EXTT13=DREAMS OF THE EVERYDAY HOUSEWIFE
EXTT14=THE LAST THING ON MY MIND
EXTT15=WHERE'S THE PLAYGROUND? SUSIE
EXTT16=TRY A LITTLE KINDNESS
EXTT17=COUNTRY BOY (YOU GOT YOUR FEETIN L.A.)
EXTT18=ALL I HAVE TO DO IS DREAM
EXTT19=AMAZING GRACE
PLAYORDER=
